<?xml version="1.0" standalone="no"?>
<!DOCTYPE svg PUBLIC "-//W3C//DTD SVG 20010904//EN"
 "http://www.w3.org/TR/2001/REC-SVG-20010904/DTD/svg10.dtd">
<svg version="1.0" xmlns="http://www.w3.org/2000/svg"
 width="524.000000pt" height="524.000000pt" viewBox="0 0 524.000000 524.000000"
 preserveAspectRatio="xMidYMid meet">
<metadata>
Created by potrace 1.11, written by Peter Selinger 2001-2013
</metadata>
<g transform="translate(0.000000,524.000000) scale(0.100000,-0.100000)"
fill="#000000" stroke="none">
<path d="M2390 5034 c-328 -40 -577 -112 -842 -245 -565 -284 -993 -780 -1193
-1384 -88 -265 -125 -496 -125 -785 0 -112 6 -237 15 -307 55 -419 210 -799
468 -1143 84 -113 280 -317 392 -407 346 -280 766 -460 1208 -518 155 -20 459
-20 614 0 522 68 987 293 1362 659 208 203 358 410 481 661 166 338 240 666
240 1055 0 206 -16 356 -56 540 -196 889 -866 1584 -1749 1811 -180 47 -291
60 -540 64 -132 1 -256 1 -275 -1z m828 -2671 l-1113 -1113 -597 597 -598 598
125 125 125 125 475 -475 475 -475 987 987 988 988 122 -122 123 -123 -1112
-1112z"/>
</g>
</svg>
