<?xml version="1.0" encoding="utf-8"?>
<!-- Generator: Adobe Illustrator 21.1.0, SVG Export Plug-In . SVG Version: 6.00 Build 0)  -->
<svg version="1.2" baseProfile="tiny" id="Layer_1" xmlns="http://www.w3.org/2000/svg" xmlns:xlink="http://www.w3.org/1999/xlink"
	 x="0px" y="0px" viewBox="0 0 150 150" xml:space="preserve">
<g>
	<path fill="#72BF44" d="M27.8,64.5V27.8h36.8V0.5H21C9.7,0.5,0.5,9.6,0.5,20.9c0,0,0,0,0,0v43.5H27.8z"/>
	<path fill="#72BF44" d="M85.5,27.8h36.7v36.8h27.3V21c0-11.3-9.2-20.5-20.5-20.5l0,0H85.5V27.8z"/>
	<path fill="#72BF44" d="M122.2,85.5v36.7H85.5v27.3H129c11.3,0,20.5-9.2,20.5-20.5l0,0V85.5H122.2z"/>
	<path fill="#72BF44" d="M64.6,122.2H27.8V85.5H0.5V129c0,11.3,9.2,20.5,20.5,20.5l0,0h43.6V122.2z"/>
	<ellipse transform="matrix(0.2297 -0.9733 0.9733 0.2297 -15.839 131.226)" fill="#6D6E71" cx="75" cy="75.6" rx="26" ry="26"/>
</g>
</svg>
